<svg preserveAspectRatio="none" overflow="visible" style="display: block;" width="40.78" height="23.518" viewBox="0 0 40.78 23.518" fill="none" xmlns="http://www.w3.org/2000/svg">
<path id="Vector" fill-rule="evenodd" clip-rule="evenodd" d="M29.0222 1.87643V11.8841C29.0222 12.382 29.2198 12.8598 29.5726 13.2101L37.5787 21.2162C37.9304 21.5679 38.4074 21.7655 38.9047 21.7655C39.4021 21.7655 39.8791 21.5679 40.2307 21.2162C40.5824 20.8645 40.78 20.3876 40.78 19.8902C40.78 19.3928 40.5824 18.9159 40.2307 18.5642L32.775 11.106V1.87643C32.775 1.37877 32.5774 0.901494 32.2255 0.549595C31.8736 0.197695 31.3963 0 30.8986 0C30.401 0 29.9237 0.197695 29.5718 0.549595C29.2199 0.901494 29.0222 1.37877 29.0222 1.87643ZM1.87643 6.00459H16.8879C17.3856 6.00459 17.8628 5.80689 18.2147 5.45499C18.5666 5.10309 18.7643 4.62582 18.7643 4.12815C18.7643 3.63049 18.5666 3.15322 18.2147 2.80132C17.8628 2.44942 17.3856 2.25172 16.8879 2.25172H1.87643C1.37877 2.25172 0.901494 2.44942 0.549595 2.80132C0.197695 3.15322 0 3.63049 0 4.12815C0 4.62582 0.197695 5.10309 0.549595 5.45499C0.901494 5.80689 1.37877 6.00459 1.87643 6.00459ZM4.37835 14.7613H19.3898C19.8875 14.7613 20.3648 14.5636 20.7167 14.2117C21.0686 13.8598 21.2663 13.3825 21.2663 12.8848C21.2663 12.3872 21.0686 11.9099 20.7167 11.558C20.3648 11.2061 19.8875 11.0084 19.3898 11.0084H4.37835C3.88068 11.0084 3.40341 11.2061 3.05151 11.558C2.69961 11.9099 2.50191 12.3872 2.50191 12.8848C2.50191 13.3825 2.69961 13.8598 3.05151 14.2117C3.40341 14.5636 3.88068 14.7613 4.37835 14.7613ZM6.88026 23.518H21.8917C22.3894 23.518 22.8667 23.3203 23.2186 22.9684C23.5705 22.6165 23.7682 22.1392 23.7682 21.6415C23.7682 21.1439 23.5705 20.6666 23.2186 20.3147C22.8667 19.9628 22.3894 19.7651 21.8917 19.7651H6.88026C6.3826 19.7651 5.90532 19.9628 5.55342 20.3147C5.20152 20.6666 5.00382 21.1439 5.00382 21.6415C5.00382 22.1392 5.20152 22.6165 5.55342 22.9684C5.90532 23.3203 6.3826 23.518 6.88026 23.518Z" fill="#F5852D"/>
</svg>
