<svg preserveAspectRatio="none" overflow="visible" style="display: block;" width="13.0765" height="13.0764" viewBox="0 0 13.0765 13.0764" fill="none" xmlns="http://www.w3.org/2000/svg">
<g id="Group">
<path id="Vector" d="M1.0897 13.0764C0.762791 13.0764 0.544851 12.9674 0.32691 12.7495C-0.10897 12.3136 -0.10897 11.6598 0.32691 11.2239L11.2239 0.32691C11.6598 -0.10897 12.3136 -0.10897 12.7495 0.32691C13.1854 0.762791 13.1854 1.41661 12.7495 1.85249L1.85249 12.7495C1.63455 12.9674 1.41661 13.0764 1.0897 13.0764Z" fill="white"/>
<path id="Vector_2" d="M11.9862 11.9888C11.3324 11.9888 10.8965 11.5529 10.8965 10.8991V2.18148H2.17892C1.5251 2.18148 1.08922 1.7456 1.08922 1.09178C1.08922 0.437955 1.5251 0.00207412 2.17892 0.00207412L11.9862 0.00207412C12.64 0.00207412 13.0759 0.437955 13.0759 1.09178V10.8991C13.0759 11.5529 12.64 11.9888 11.9862 11.9888Z" fill="white"/>
</g>
</svg>
