<svg width="153" height="44" viewBox="0 0 153 44" fill="none" xmlns="http://www.w3.org/2000/svg">
<rect width="153" height="44" fill="#282828"/>
<g id="Krow Labs Home" clip-path="url(#clip0_299_46)">
<rect width="1440" height="11703" transform="translate(-603.656 -871)" fill="#F5F5F5"/>
<g id="Group 2085663229">
<g id="Frame 2147229207">
<g id="IR-Logo-Dark 2" clip-path="url(#clip1_299_46)">
<path id="Vector" d="M128.045 30.334V43.5701H129.687V39.1342C129.687 38.2756 129.901 37.5602 130.401 37.0593C130.901 36.5585 131.472 36.3439 132.328 36.3439C133.113 36.3439 133.755 36.5585 134.184 37.0593C134.612 37.5602 134.826 38.2041 134.826 39.1342V43.6416H136.468V38.7764C136.468 37.5602 136.111 36.5585 135.397 35.843C134.683 35.1276 133.755 34.7698 132.614 34.7698C131.4 34.7698 130.401 35.1991 129.687 35.9146V30.334H128.045ZM120.052 35.9861C119.196 36.8447 118.767 37.9179 118.767 39.3488C118.767 40.7082 119.196 41.8529 119.981 42.7116C120.766 43.5701 121.908 43.9994 123.192 43.9994C124.049 43.9994 124.834 43.7847 125.547 43.2839C126.262 42.7831 126.761 42.1392 127.117 41.2806L125.69 40.8514C125.477 41.3521 125.12 41.7099 124.691 41.996C124.263 42.2822 123.763 42.4253 123.264 42.4253C122.407 42.4253 121.765 42.1392 121.265 41.5668C120.766 40.9944 120.48 40.279 120.48 39.3488C120.48 38.4188 120.766 37.7032 121.265 37.1308C121.765 36.5585 122.479 36.2723 123.264 36.2723C124.263 36.2723 125.048 36.7732 125.619 37.7748L127.047 37.274C126.69 36.4869 126.191 35.843 125.547 35.4138C124.905 34.9845 124.12 34.7698 123.264 34.7698C121.908 34.7698 120.837 35.1991 120.052 35.9861ZM116.412 35.0561C115.77 35.1991 115.27 35.5569 114.913 36.1293L114.556 35.0561H113.272V43.5701H114.913V39.2058C114.913 38.2041 115.199 37.4886 115.841 36.9878C116.483 36.5585 117.197 36.4154 117.982 36.5585L118.482 34.9845C117.697 34.8415 117.054 34.913 116.412 35.0561ZM110.274 39.3488C110.274 40.2073 109.989 40.9229 109.489 41.5668C108.918 42.1392 108.276 42.4968 107.419 42.4968C106.563 42.4968 105.849 42.2107 105.349 41.6383C104.85 41.066 104.564 40.3505 104.564 39.4204C104.564 38.5619 104.85 37.7748 105.349 37.2024C105.92 36.6301 106.563 36.3439 107.419 36.3439C108.276 36.3439 108.989 36.6301 109.489 37.2024C109.989 37.7748 110.274 38.4903 110.274 39.3488ZM103.922 35.9861C103.137 36.8447 102.708 37.9179 102.708 39.3488C102.708 40.7082 103.137 41.8529 103.922 42.7116C104.707 43.5701 105.778 43.9994 107.062 43.9994C108.49 43.9994 109.56 43.4985 110.274 42.5684L110.56 43.5701H111.844V35.0561H110.203V36.1293C109.418 35.1991 108.347 34.7698 106.991 34.7698C105.778 34.7698 104.778 35.1991 103.922 35.9861ZM99.0683 36.9163C99.568 37.4171 99.7822 37.9895 99.8535 38.6334H94.4292C94.4292 37.9895 94.7146 37.4171 95.2142 36.9163C95.7139 36.4154 96.3562 36.2008 97.2127 36.2008C97.9978 36.1293 98.6402 36.4154 99.0683 36.9163ZM94.0009 35.9861C93.1445 36.8447 92.7876 37.9179 92.7876 39.2773C92.7876 40.6366 93.2158 41.7814 94.0009 42.64C94.786 43.4985 95.8566 43.9278 97.1413 43.9278C98.9256 43.9278 100.21 43.2123 101.067 41.7814L99.7107 41.209C99.2112 42.0676 98.3546 42.4968 97.2127 42.4968C96.4276 42.4968 95.7139 42.2822 95.2142 41.7814C94.7146 41.2805 94.4292 40.7082 94.4292 39.9927H101.566V39.3488C101.566 37.9179 101.138 36.7732 100.282 35.9861C99.4253 35.1276 98.3546 34.7698 97.2127 34.7698C95.8566 34.7698 94.786 35.1991 94.0009 35.9861ZM86.2926 35.3422C85.6502 35.7715 85.2934 36.4154 85.2934 37.2024C85.2934 37.5602 85.3648 37.9179 85.5789 38.2756C85.7216 38.5619 86.0072 38.848 86.2926 39.0627C86.5781 39.2773 86.9349 39.4204 87.2205 39.5634C87.5059 39.7066 87.8628 39.7781 88.291 39.9212C88.3625 39.9212 88.5052 39.9927 88.6479 40.0643C88.862 40.1358 88.9335 40.2073 89.0048 40.2073C89.0762 40.2073 89.2189 40.279 89.3616 40.3505C89.5043 40.422 89.6472 40.4936 89.7185 40.5651C89.7899 40.6366 89.8613 40.7082 89.9326 40.7797C90.004 40.8514 90.0753 40.9944 90.1468 41.066C90.2182 41.209 90.2182 41.2806 90.2182 41.4236C90.2182 42.1392 89.7899 42.4968 88.8621 42.4968C87.8628 42.5684 87.0063 42.2822 86.1499 41.8529L85.3648 43.0692C85.7216 43.2838 86.1499 43.4985 86.7922 43.6416C87.4346 43.7847 88.0056 43.9278 88.5052 43.9278C89.5045 43.9278 90.2895 43.7131 90.9319 43.2839C91.5742 42.8546 91.9311 42.2107 91.8597 41.2806C91.8597 40.8512 91.7883 40.4936 91.5742 40.2073C91.4315 39.9212 91.146 39.6351 90.7892 39.4204C90.4322 39.2058 90.1468 39.0627 89.8613 38.991C89.5758 38.9195 89.2189 38.7764 88.7906 38.6334C88.7193 38.6334 88.7193 38.6334 88.6479 38.5619C88.2196 38.4187 87.9342 38.2756 87.7915 38.2041C87.6488 38.1325 87.4346 37.9895 87.2205 37.8464C87.0063 37.6317 86.9349 37.4171 86.9349 37.1308C86.9349 36.4869 87.4346 36.1293 88.4338 36.1293C89.2903 36.1293 90.0753 36.2723 90.7892 36.63L91.4315 35.4138C90.6463 34.9845 89.7899 34.7698 88.7906 34.7698C87.7201 34.6983 86.9349 34.913 86.2926 35.3422ZM81.9389 36.9163C82.4385 37.4171 82.6526 37.9895 82.7239 38.6334H77.2996C77.2996 37.9895 77.5851 37.4171 78.0848 36.9163C78.5843 36.4154 79.2266 36.2008 80.0832 36.2008C80.7969 36.1293 81.4392 36.4154 81.9389 36.9163ZM76.7999 35.9861C75.9435 36.8447 75.5866 37.9179 75.5866 39.2773C75.5866 40.6366 76.0149 41.7814 76.7999 42.64C77.5851 43.4985 78.6558 43.9278 79.9405 43.9278C81.7248 43.9278 83.0095 43.2123 83.8659 41.7814L82.5099 41.209C82.0102 42.0676 81.1538 42.4968 80.0118 42.4968C79.2266 42.4968 78.5129 42.2822 78.0133 41.7814C77.5138 41.2805 77.2282 40.7082 77.2282 39.9927H84.3655V39.3488C84.3655 37.9179 83.9373 36.7732 83.0808 35.9861C82.2243 35.1276 81.1538 34.7698 79.9405 34.7698C78.6558 34.7698 77.5851 35.1991 76.7999 35.9861ZM73.1599 35.0561C72.5176 35.1991 72.0181 35.5569 71.6611 36.1293L71.3042 35.0561H70.0195V43.5701H71.6611V39.2058C71.6611 38.2041 71.9466 37.4886 72.5889 36.9878C73.2313 36.4869 73.9451 36.4154 74.7302 36.5585L75.2298 34.9845C74.5161 34.8415 73.8024 34.913 73.1599 35.0561Z" fill="#919191"/>
<path id="Vector_2" d="M149.885 20.5305C150.456 21.1029 150.67 21.8183 150.67 22.677C150.67 23.5355 150.385 24.2509 149.885 24.8948C149.314 25.4672 148.671 25.825 147.815 25.825C146.958 25.825 146.245 25.5387 145.746 24.9665C145.245 24.3941 144.961 23.6785 144.961 22.7485C144.961 21.8183 145.245 21.1029 145.746 20.5305C146.245 19.9581 146.958 19.672 147.815 19.672C148.6 19.672 149.314 19.9581 149.885 20.5305ZM152.312 13.6621H150.67V19.4573C149.885 18.5273 148.814 18.0979 147.459 18.0979C146.245 18.0979 145.174 18.5273 144.389 19.3858C143.604 20.2444 143.176 21.3175 143.176 22.7485C143.176 24.1794 143.533 25.2526 144.318 26.1111C145.104 26.9697 146.102 27.399 147.387 27.399C148.743 27.399 149.885 26.8982 150.67 25.968L150.955 27.0413H152.241V13.6621H152.312ZM139.535 20.2444C140.036 20.7452 140.25 21.3175 140.32 21.9614H134.896C134.896 21.3175 135.182 20.7452 135.681 20.2444C136.182 19.7435 136.824 19.5288 137.68 19.5288C138.394 19.5288 139.036 19.8151 139.535 20.2444ZM134.397 19.3858C133.541 20.2444 133.183 21.3175 133.183 22.677C133.183 24.0363 133.612 25.1811 134.397 26.0396C135.182 26.8982 136.252 27.3274 137.538 27.3274C139.322 27.3274 140.606 26.6119 141.463 25.1811L140.107 24.6087C139.607 25.4672 138.75 25.8965 137.609 25.8965C136.824 25.8965 136.11 25.6819 135.61 25.1811C135.111 24.6802 134.825 24.1078 134.825 23.3924H141.962V22.7485C141.962 21.3175 141.534 20.1729 140.678 19.3858C139.821 18.5273 138.75 18.1695 137.609 18.1695C136.324 18.0979 135.254 18.5273 134.397 19.3858ZM129.687 15.3077L128.045 15.88V18.4557H126.545V20.0297H128.045V24.4656C128.045 26.3973 128.83 27.3274 130.4 27.3274C130.828 27.3274 131.186 27.2558 131.542 27.1128C131.899 26.9697 132.185 26.755 132.327 26.6119L131.828 25.3957C131.399 25.6819 131.043 25.7534 130.614 25.7534C129.972 25.7534 129.687 25.3241 129.615 24.4656V20.0297H132.255V18.4557H129.615V15.3077H129.687ZM123.691 22.677C123.691 23.5355 123.405 24.2509 122.906 24.8948C122.406 25.5387 121.693 25.825 120.836 25.825C119.98 25.825 119.266 25.5387 118.766 24.9665C118.267 24.3941 117.981 23.6785 117.981 22.7485C117.981 21.8899 118.267 21.1029 118.766 20.5305C119.337 19.9581 119.98 19.672 120.836 19.672C121.693 19.672 122.406 19.9581 122.906 20.5305C123.405 21.1029 123.691 21.8183 123.691 22.677ZM117.41 19.3858C116.625 20.2444 116.197 21.3175 116.197 22.7485C116.197 24.1078 116.625 25.2526 117.41 26.1111C118.195 26.9697 119.266 27.399 120.551 27.399C121.907 27.399 123.049 26.8982 123.762 25.968L124.048 26.9697H125.333V18.4557H123.691V19.5288C122.906 18.5988 121.835 18.1695 120.479 18.1695C119.266 18.0979 118.195 18.5273 117.41 19.3858ZM113.842 18.4557C113.199 18.5988 112.7 18.9566 112.343 19.5288L111.986 18.4557H110.701V26.9697H112.343V22.6054C112.343 21.6037 112.628 20.8883 113.271 20.3874C113.913 19.9581 114.627 19.8151 115.412 19.9581L115.911 18.3842C115.198 18.241 114.484 18.241 113.842 18.4557ZM106.49 20.5305C106.99 21.1029 107.275 21.8183 107.275 22.677C107.275 23.5355 106.99 24.3224 106.49 24.8948C105.991 25.4672 105.277 25.7534 104.42 25.7534C103.564 25.7534 102.85 25.4672 102.351 24.8948C101.851 24.3224 101.565 23.607 101.565 22.677C101.565 21.7468 101.851 21.0314 102.351 20.459C102.85 19.8866 103.564 19.6005 104.42 19.6005C105.277 19.672 105.991 19.9581 106.49 20.5305ZM101.066 19.3858C100.281 20.2444 99.8524 21.3175 99.8524 22.7485C99.8524 24.1078 100.281 25.2526 101.066 26.1111C101.851 26.9697 102.921 27.399 104.135 27.399C105.491 27.399 106.562 26.8982 107.347 25.968V26.9697C107.347 27.8998 107.133 28.6868 106.704 29.2592C106.276 29.8316 105.562 30.1177 104.634 30.1177C103.992 30.1177 103.421 29.9031 102.921 29.5454C102.422 29.116 102.136 28.6868 101.994 28.186L100.566 28.7584C100.852 29.6169 101.351 30.3324 102.065 30.8332C102.779 31.334 103.635 31.6203 104.634 31.6203C106.062 31.6203 107.204 31.191 107.846 30.3323C108.56 29.4738 108.917 28.3291 108.917 26.8982V18.4557H107.632L107.347 19.5288C106.562 18.5988 105.491 18.1695 104.135 18.1695C102.85 18.0979 101.851 18.5273 101.066 19.3858ZM96.2124 20.2444C96.712 20.7452 96.9262 21.3175 96.9975 21.9614H91.5732C91.5732 21.3175 91.8586 20.7452 92.3582 20.2444C92.8579 19.7435 93.5002 19.5288 94.3567 19.5288C95.0704 19.5288 95.7127 19.8151 96.2124 20.2444ZM91.0736 19.3858C90.217 20.2444 89.8602 21.3175 89.8602 22.677C89.8602 24.0363 90.2884 25.1811 91.0736 26.0396C91.8586 26.8982 92.9292 27.3274 94.2139 27.3274C95.9983 27.3274 97.283 26.6119 98.1395 25.1811L96.7833 24.6087C96.2837 25.4672 95.4273 25.8965 94.2853 25.8965C93.5002 25.8965 92.7865 25.6819 92.2869 25.1811C91.7873 24.6802 91.5017 24.1078 91.5017 23.3924H98.639V22.7485C98.639 21.3175 98.2109 20.1729 97.3543 19.3858C96.4979 18.5273 95.4273 18.1695 94.2853 18.1695C92.9292 18.0979 91.93 18.5273 91.0736 19.3858ZM86.2915 15.3077L84.6499 15.88V18.4557H83.1512V20.0297H84.6499V24.4656C84.6499 26.3973 85.435 27.3274 87.0053 27.3274C87.4335 27.3274 87.7903 27.2558 88.1472 27.1128C88.5042 26.9697 88.7896 26.755 88.9323 26.6119L88.4327 25.3957C88.0045 25.6819 87.6476 25.7534 87.2193 25.7534C86.577 25.7534 86.2202 25.3241 86.2202 24.4656V20.0297H88.8609V18.4557H86.2202V15.3077H86.2915ZM75.5142 19.3142L75.2286 18.4557H73.8726V26.9697H75.5142V22.4622C75.5142 21.6037 75.7283 20.8883 76.2279 20.3874C76.7275 19.8866 77.2985 19.672 78.155 19.672C78.9401 19.672 79.5825 19.8866 80.0106 20.3874C80.4389 20.8883 80.653 21.5322 80.653 22.4622V26.9697H82.2946V22.1046C82.2946 20.8883 81.9378 19.8866 81.224 19.1712C80.5103 18.4557 79.5825 18.0979 78.4405 18.0979C77.2985 18.1695 76.2993 18.5273 75.5142 19.3142ZM71.8742 18.4557H70.2326V26.8982H71.8742V18.4557ZM70.3753 15.2361C70.1612 15.4508 70.0898 15.6654 70.0898 15.9516C70.0898 16.2377 70.1612 16.524 70.3753 16.6671C70.5895 16.8817 70.8036 16.9532 71.089 16.9532C71.3745 16.9532 71.66 16.8817 71.8028 16.6671C72.0169 16.4523 72.0883 16.2377 72.0883 15.9516C72.0883 15.6654 72.0169 15.4508 71.8028 15.2361C71.5886 15.0215 71.3745 14.9499 71.0176 14.9499C70.8036 14.9499 70.5181 15.0215 70.3753 15.2361Z" fill="#919191"/>
<path id="Vector_3" d="M56.3145 14.8789V43.6406" stroke="#919191" stroke-width="1.13824"/>
<path id="Vector_4" d="M0.00195312 5.72371C0.00195312 2.57567 2.57139 0 5.7118 0C8.85222 0 11.4217 2.57567 11.4217 5.72371C11.4217 8.87175 8.85222 11.4474 5.7118 11.4474C2.57139 11.519 0.00195312 8.94329 0.00195312 5.72371Z" fill="#919191"/>
<path id="Vector_5" d="M30.9062 20.6027C30.9062 17.4547 33.4758 14.8789 36.6162 14.8789C39.7566 14.8789 42.3259 17.4547 42.3259 20.6027C42.3259 23.7507 39.7566 26.3263 36.6162 26.3263C33.4758 26.3979 30.9062 23.8222 30.9062 20.6027Z" fill="#919191"/>
<path id="Vector_6" d="M11.4197 14.9531H0V43.6433H11.4197V14.9531Z" fill="#919191"/>
<path id="Vector_7" d="M27.408 14.9531H15.9883V43.6433H27.408V14.9531Z" fill="#919191"/>
</g>
</g>
</g>
</g>
<defs>
<clipPath id="clip0_299_46">
<rect width="1440" height="11703" fill="white" transform="translate(-603.656 -871)"/>
</clipPath>
<clipPath id="clip1_299_46">
<rect width="153" height="44" fill="white"/>
</clipPath>
</defs>
</svg>
